<svg width="46" height="40" viewBox="0 0 46 40" fill="none" xmlns="http://www.w3.org/2000/svg">
<path d="M21.1578 8.94734C21.1578 12.7842 18.0474 15.8947 14.2105 15.8947C10.3736 15.8947 7.26312 12.7842 7.26312 8.94734C7.26312 5.11043 10.3736 2 14.2105 2C18.0474 2 21.1578 5.11043 21.1578 8.94734Z" stroke="white" stroke-width="4"/>
<path d="M4.34683 24.3468C5.84673 22.8469 7.88018 22.003 10.0013 22H18.4196C20.5408 22.003 22.5742 22.8469 24.0741 24.3468C25.574 25.8467 26.4179 27.88 26.421 30.0011C26.421 30.0016 26.421 30.002 26.421 30.0025L26.421 37.9999H2V30.0013C2.00298 27.8802 2.84692 25.8467 4.34683 24.3468Z" stroke="white" stroke-width="4"/>
<path d="M38.623 12.6251C38.623 15.8771 35.9867 18.5135 32.7346 18.5135C29.4826 18.5135 26.8463 15.8771 26.8463 12.6251C26.8463 9.373 29.4826 6.73668 32.7346 6.73668C35.9867 6.73668 38.623 9.373 38.623 12.6251Z" stroke="white" stroke-width="4"/>
<path d="M32.5261 38L32.5261 30L32.5261 29.9976C32.5238 28.0496 32.1153 26.1379 31.3419 24.379L36.4419 24.379L36.4433 24.379C38.2496 24.3777 39.9825 25.0935 41.2612 26.3692C42.5396 27.6445 43.2595 29.375 43.2629 31.1807V38H32.5261Z" stroke="white" stroke-width="4"/>
</svg>
