<svg width="36" height="40" viewBox="0 0 36 40" fill="none" xmlns="http://www.w3.org/2000/svg">
<path d="M33.9596 12.0335L21.9739 1.52604C20.8752 0.543304 19.4528 0 17.9787 0C16.5046 0 15.0822 0.543304 13.9835 1.52604L1.9978 12.0335C1.3633 12.6009 0.856964 13.2971 0.51252 14.0755C0.168076 14.854 -0.00657725 15.6968 0.000189362 16.5481V34.0072C0.000189362 35.5966 0.631575 37.1209 1.75545 38.2447C2.87932 39.3686 4.40362 40 5.99302 40H29.9643C31.5537 40 33.078 39.3686 34.2019 38.2447C35.3258 37.1209 35.9572 35.5966 35.9572 34.0072V16.5281C35.9611 15.6802 35.7851 14.8412 35.4407 14.0664C35.0964 13.2916 34.5915 12.5987 33.9596 12.0335ZM21.9739 36.0048H13.9835V26.0167C13.9835 25.4869 14.1939 24.9788 14.5685 24.6042C14.9432 24.2296 15.4513 24.0191 15.9811 24.0191H19.9763C20.5061 24.0191 21.0142 24.2296 21.3888 24.6042C21.7634 24.9788 21.9739 25.4869 21.9739 26.0167V36.0048ZM31.9619 34.0072C31.9619 34.537 31.7515 35.0451 31.3769 35.4197C31.0022 35.7943 30.4941 36.0048 29.9643 36.0048H25.9691V26.0167C25.9691 24.4273 25.3377 22.903 24.2139 21.7792C23.09 20.6553 21.5657 20.0239 19.9763 20.0239H15.9811C14.3917 20.0239 12.8674 20.6553 11.7435 21.7792C10.6196 22.903 9.98824 24.4273 9.98824 26.0167V36.0048H5.99302C5.46322 36.0048 4.95512 35.7943 4.5805 35.4197C4.20587 35.0451 3.99541 34.537 3.99541 34.0072V16.5281C3.99577 16.2445 4.05652 15.9642 4.17363 15.7058C4.29074 15.4475 4.46151 15.2171 4.6746 15.0299L16.6603 4.54243C17.0248 4.22217 17.4934 4.04555 17.9787 4.04555C18.4639 4.04555 18.9326 4.22217 19.2971 4.54243L31.2828 15.0299C31.4958 15.2171 31.6666 15.4475 31.7837 15.7058C31.9008 15.9642 31.9616 16.2445 31.9619 16.5281V34.0072Z" fill="#020202"/>
</svg>
