<svg width="42" height="40" viewBox="0 0 42 40" fill="none" xmlns="http://www.w3.org/2000/svg">
<path d="M39.1092 33.4911C36.8932 35.75 34.26 37.4018 31.2095 38.4375C28.159 39.4821 24.9416 40 21.5573 40C18.3214 40 15.3729 39.5089 12.7212 38.5179C10.0694 37.5357 7.79773 36.1607 5.92479 34.4018C4.04258 32.6429 2.58688 30.5357 1.54842 28.0804C0.509959 25.625 0 22.9464 0 20.0446C0 17.1786 0.565591 14.5268 1.69677 12.0893C2.82795 9.65179 4.3671 7.53571 6.32349 5.74107C8.27988 3.94643 10.5608 2.54464 13.1848 1.51786C15.7902 0.508929 18.5903 0 21.5573 0C24.1164 0 26.6013 0.357143 29.0027 1.07143C31.4135 1.78571 33.546 2.86607 35.4097 4.29464C37.2733 5.73214 38.7569 7.51786 39.8695 9.66964C40.9821 11.8214 41.5385 14.3482 41.5385 17.25C41.5385 19.4018 41.2325 21.3036 40.6113 22.9464C39.99 24.5982 39.1648 25.9732 38.1264 27.0893C37.0879 28.2054 35.9104 29.0357 34.5752 29.5893C33.24 30.1429 31.84 30.4196 30.375 30.4196C28.8729 30.4196 27.6676 30.0804 26.7589 29.4018C25.8595 28.7232 25.4052 27.8571 25.4052 26.8214H25.1271C24.5615 27.6786 23.6992 28.5 22.5309 29.2679C21.3626 30.0357 19.9348 30.4286 18.238 30.4286C15.6789 30.4286 13.704 29.625 12.3132 28.0089C10.9224 26.3929 10.227 24.3036 10.227 21.7143C10.227 20.2054 10.4866 18.7232 11.0151 17.25C11.5436 15.7768 12.2946 14.4732 13.2682 13.3214C14.2418 12.1786 15.41 11.25 16.7637 10.5536C18.1174 9.85714 19.6195 9.50893 21.2792 9.50893C22.7071 9.50893 23.9124 9.79464 24.8953 10.3661C25.8688 10.9375 26.5086 11.6429 26.8146 12.4643H26.8702L27.3245 10.3125H32.3499L30.1339 20.4821C30.0598 20.9821 29.9578 21.5357 29.828 22.1518C29.6981 22.7589 29.6332 23.3304 29.6332 23.875C29.6332 24.4821 29.7538 24.9911 30.0041 25.4107C30.2452 25.8214 30.7273 26.0268 31.4413 26.0268C32.9062 26.0268 34.1209 25.2768 35.0852 23.7679C36.0402 22.2589 36.5223 20.2411 36.5223 17.6964C36.5223 15.5446 36.1422 13.6339 35.3911 11.9732C34.6401 10.3036 33.5924 8.91071 32.2572 7.77679C30.922 6.65179 29.3273 5.79464 27.4914 5.22321C25.6463 4.65179 23.6343 4.36607 21.4554 4.36607C19.0817 4.36607 16.9121 4.76786 14.9372 5.57143C12.9622 6.375 11.2747 7.49107 9.88393 8.90179C8.49313 10.3214 7.40831 11.9821 6.63874 13.9018C5.85989 15.8125 5.47047 17.8839 5.47047 20.1071C5.47047 22.4732 5.87843 24.6071 6.6851 26.5089C7.49176 28.4107 8.63221 30.0268 10.0972 31.375C11.5622 32.7232 13.3146 33.75 15.3451 34.4643C17.3757 35.1786 19.6195 35.5357 22.058 35.5357C25.1085 35.5357 27.7325 35.0714 29.9299 34.1339C32.1274 33.2054 34.1487 31.9107 35.9938 30.2589L39.1092 33.4911ZM21.4461 13.9286C20.5467 13.9286 19.7493 14.1786 19.0725 14.6786C18.3956 15.1786 17.8207 15.8125 17.3479 16.5893C16.875 17.3571 16.5227 18.2143 16.2723 19.1429C16.0312 20.0714 15.9014 20.9732 15.9014 21.8304C15.9014 22.2589 15.9478 22.7143 16.0405 23.2054C16.1332 23.6875 16.3187 24.1339 16.6061 24.5536C16.8843 24.9643 17.2551 25.3036 17.7095 25.5714C18.1638 25.8393 18.7665 25.9732 19.5175 25.9732C20.5374 25.9732 21.3997 25.7321 22.1137 25.25C22.8276 24.7679 23.4117 24.1607 23.8661 23.4196C24.3204 22.6875 24.6449 21.8839 24.8582 21.0268C25.0622 20.1696 25.1641 19.375 25.1641 18.6607C25.1641 18.0893 25.1085 17.5268 24.9973 16.9643C24.886 16.4107 24.6913 15.9107 24.4038 15.4554C24.1257 15.0089 23.7363 14.6429 23.2449 14.3571C22.7627 14.0714 22.16 13.9286 21.4461 13.9286Z" fill="white"/>
</svg>
