<svg width="32" height="40" viewBox="0 0 32 40" fill="none" xmlns="http://www.w3.org/2000/svg">
<path d="M26.8697 27.6923V28.1065L27.1626 28.3994L29.8087 31.0456C30.4678 31.7046 29.9988 32.8462 29.0594 32.8462H2.04406C1.12602 32.8462 0.641087 31.7197 1.31527 31.0456L3.96142 28.3994L4.25431 28.1065V27.6923V17.4359C4.25431 11.4667 7.38228 6.70851 12.7156 5.44486L13.4851 5.26255V4.47179V3.07692C13.4851 1.92664 14.4117 1 15.562 1C16.7123 1 17.6389 1.92664 17.6389 3.07692V4.47179V5.26191L18.4076 5.44467C23.7218 6.70819 26.8697 11.4881 26.8697 17.4359V27.6923ZM18.4977 36.8974C18.0784 38.1161 16.9168 39 15.562 39C14.193 39 13.0392 38.1176 12.6241 36.8974H18.4977Z" stroke="black" stroke-width="2"/>
</svg>
