<svg width="42" height="40" viewBox="0 0 42 40" fill="none" xmlns="http://www.w3.org/2000/svg">
<path d="M39.6174 11.1962V12.3213H2.34192V11.1962C2.34198 9.82401 2.86236 8.50284 3.79813 7.49916C4.73389 6.49548 6.01541 5.88396 7.38428 5.7879H34.4937C35.8771 5.8641 37.1788 6.46696 38.1316 7.47271C39.0844 8.47847 39.6161 9.81081 39.6174 11.1962Z" stroke="white" stroke-width="3"/>
<path d="M34.4937 4.43245H7.77737C7.66031 4.41851 7.54201 4.41851 7.42495 4.43245C5.68926 4.52282 4.05462 5.27657 2.85887 6.53791C1.66312 7.79925 0.997655 9.47177 1.00001 11.2098V12.3349H3.71095V11.1963C3.71095 10.1178 4.13938 9.08347 4.90198 8.32086C5.66458 7.55826 6.69889 7.12984 7.77737 7.12984H34.2091C35.2876 7.12984 36.3219 7.55826 37.0845 8.32086C37.8471 9.08347 38.2755 10.1178 38.2755 11.1963V12.3213H40.9865V11.1963C40.9845 9.44938 40.3081 7.77072 39.0984 6.51049C37.8887 5.25027 36.2391 4.50581 34.4937 4.43245Z" fill="white"/>
<path d="M38.1174 16.5322V30.5117C38.1174 32.2708 37.4186 33.9579 36.1747 35.2018C34.9308 36.4457 33.2437 37.1445 31.4846 37.1445H10.4748C8.71562 37.1445 7.02853 36.4457 5.78463 35.2018C4.54073 33.9579 3.84192 32.2708 3.84192 30.5117V16.5322H38.1174Z" stroke="white" stroke-width="3"/>
<path d="M40.9865 15.0322V30.5117C40.9865 31.7577 40.741 32.9915 40.2642 34.1427C39.7874 35.2938 39.0885 36.3398 38.2074 37.2209C37.3263 38.102 36.2803 38.8009 35.1292 39.2777C33.978 39.7545 32.7442 40 31.4981 40H10.4883C7.97185 40 5.55847 39.0003 3.77906 37.2209C1.99966 35.4415 1 33.0281 1 30.5117V15.0322H3.71095V30.5117C3.71095 32.3091 4.42499 34.033 5.69599 35.304C6.96699 36.575 8.69084 37.289 10.4883 37.289H31.4981C33.2956 37.289 35.0195 36.575 36.2905 35.304C37.5615 34.033 38.2755 32.3091 38.2755 30.5117V15.0322H40.9865Z" fill="white"/>
<rect x="7" y="19" width="3" height="3" fill="white"/>
<rect x="13" y="19" width="3" height="3" fill="white"/>
<rect x="19" y="19" width="3" height="3" fill="white"/>
<rect x="25" y="19" width="3" height="3" fill="white"/>
<rect x="31" y="19" width="3" height="3" fill="white"/>
<rect x="7" y="25" width="3" height="3" fill="white"/>
<rect x="13" y="25" width="3" height="3" fill="white"/>
<rect x="19" y="25" width="3" height="3" fill="white"/>
<rect x="25" y="25" width="3" height="3" fill="white"/>
<rect x="31" y="25" width="3" height="3" fill="white"/>
<rect x="7" y="31" width="3" height="3" fill="white"/>
<rect x="13" y="31" width="3" height="3" fill="white"/>
<rect x="19" y="31" width="3" height="3" fill="white"/>
<rect x="25" y="31" width="3" height="3" fill="white"/>
<rect x="31" y="31" width="3" height="3" fill="white"/>
</svg>
