<svg width="40" height="40" viewBox="0 0 40 40" fill="none" xmlns="http://www.w3.org/2000/svg">
<path d="M16.3522 32.7044C7.37946 32.7044 0 25.4088 0 16.3522C0 7.37946 7.2956 0 16.3522 0C25.4088 0 32.7044 7.2956 32.7044 16.3522C32.6205 25.4088 25.3249 32.7044 16.3522 32.7044ZM16.3522 2.43187C8.63732 2.43187 2.34801 8.72117 2.34801 16.4361C2.34801 24.1509 8.63732 30.4403 16.3522 30.4403C24.0671 30.4403 30.3564 24.1509 30.3564 16.4361C30.2725 8.72117 23.9832 2.43187 16.3522 2.43187Z" fill="black"/>
<path d="M38.1552 40L26.7505 28.6792L28.5954 26.8344L39.9162 38.239L38.1552 40Z" fill="black"/>
</svg>
